<?xml version="1.0" standalone="no"?>
<!DOCTYPE svg PUBLIC "-//W3C//DTD SVG 20010904//EN"
 "http://www.w3.org/TR/2001/REC-SVG-20010904/DTD/svg10.dtd">
<svg version="1.0" xmlns="http://www.w3.org/2000/svg"
 width="700.000000pt" height="700.000000pt" viewBox="0 0 700.000000 700.000000"
 preserveAspectRatio="xMidYMid meet">
<metadata>
Created by potrace 1.11, written by Peter Selinger 2001-2013
</metadata>
<g transform="translate(0.000000,700.000000) scale(0.100000,-0.100000)"
fill="#000000" stroke="none">
<path d="M755 6403 c-198 -42 -367 -192 -435 -388 l-25 -70 -3 -1827 c-2
-1594 0 -1837 13 -1900 36 -176 156 -330 315 -406 47 -22 112 -45 144 -51 40
-7 406 -11 1103 -11 574 0 1043 -2 1043 -5 0 -3 -130 -201 -290 -440 l-290
-435 0 -145 0 -145 1170 0 1170 0 0 145 0 145 -290 435 c-159 239 -290 437
-290 440 0 3 469 5 1043 5 697 0 1063 4 1103 11 32 6 97 29 144 51 159 76 279
230 315 406 13 63 15 306 13 1900 l-3 1827 -25 70 c-51 146 -170 280 -305 345
-135 64 55 60 -2882 59 -2327 -1 -2677 -3 -2738 -16z m5365 -2028 l0 -1455
-2620 0 -2620 0 0 1455 0 1455 2620 0 2620 0 0 -1455z"/>
</g>
</svg>
