<?xml version="1.0" standalone="no"?>
<!DOCTYPE svg PUBLIC "-//W3C//DTD SVG 20010904//EN"
 "http://www.w3.org/TR/2001/REC-SVG-20010904/DTD/svg10.dtd">
<svg version="1.0" xmlns="http://www.w3.org/2000/svg"
 width="354.000000pt" height="354.000000pt" viewBox="0 0 354.000000 354.000000"
 preserveAspectRatio="xMidYMid meet">
<metadata>
Created by potrace 1.11, written by Peter Selinger 2001-2013
</metadata>
<g transform="translate(0.000000,354.000000) scale(0.100000,-0.100000)"
fill="#000000" stroke="none">
<path d="M1573 3509 c-250 -27 -548 -135 -763 -278 -435 -289 -729 -771 -780
-1280 -52 -520 116 -1014 468 -1382 l104 -109 82 0 c107 0 304 25 440 55 256
58 547 183 763 328 117 78 203 145 203 156 0 6 -169 -28 -610 -123 -36 -8
-173 -37 -305 -65 -132 -29 -249 -54 -260 -57 -63 -16 37 23 250 99 378 135
687 244 847 300 81 29 148 55 148 58 0 3 -168 69 -372 147 -205 77 -456 173
-558 212 -102 39 -216 82 -253 96 -38 15 -66 28 -64 30 2 3 98 -18 213 -46
115 -28 256 -62 314 -76 112 -27 432 -104 643 -155 70 -17 131 -29 136 -27 5
2 -101 176 -235 388 -134 212 -244 388 -244 392 0 8 72 -67 409 -422 128 -135
236 -246 241 -248 9 -3 11 16 35 343 8 110 22 288 30 395 8 107 22 296 31 420
16 232 30 359 33 290 1 -19 6 -107 11 -195 5 -88 17 -302 25 -475 9 -173 20
-385 25 -470 6 -85 10 -170 10 -187 0 -18 4 -33 9 -33 14 0 147 274 186 383
117 327 161 643 137 968 -14 185 -3 164 -152 268 -348 240 -765 345 -1197 300z"/>
<path d="M2996 2988 c11 -37 8 -356 -5 -473 -30 -262 -113 -550 -227 -783 -35
-72 -64 -134 -64 -135 0 -2 129 125 286 282 157 157 280 275 274 262 -7 -13
-105 -164 -219 -335 -247 -372 -275 -415 -269 -421 2 -3 67 9 144 25 76 17
171 37 209 46 39 8 140 29 225 48 142 30 155 34 161 57 4 13 7 106 8 205 1
188 -9 280 -50 439 -66 259 -217 542 -389 728 -73 79 -97 94 -84 55z"/>
<path d="M3410 1415 c-36 -13 -168 -60 -295 -105 -286 -100 -288 -101 -278
-111 5 -5 73 -33 153 -63 80 -30 192 -73 249 -95 58 -22 106 -40 107 -38 34
42 144 365 144 424 0 17 -3 16 -80 -12z"/>
<path d="M2760 1024 c0 -8 281 -454 286 -454 22 0 244 304 244 333 0 4 -7 7
-16 7 -14 0 -110 22 -364 84 -145 36 -150 37 -150 30z"/>
<path d="M2105 908 c-164 -137 -451 -299 -678 -383 -176 -64 -489 -133 -627
-136 -25 0 -56 -4 -70 -8 -23 -7 -16 -13 77 -74 297 -196 602 -287 963 -287
226 0 396 28 588 97 58 21 72 30 72 47 0 53 -30 638 -36 695 l-6 64 -335 -334
-335 -334 56 88 c31 48 123 188 204 310 200 301 203 307 195 306 -5 0 -35 -23
-68 -51z"/>
<path d="M2587 870 c-4 -30 -14 -154 -22 -275 -9 -121 -19 -259 -23 -307 -5
-49 -4 -88 0 -88 47 0 330 192 412 279 l29 30 -96 103 c-53 57 -141 150 -195
208 l-99 105 -6 -55z"/>
</g>
</svg>
